# xmcd
#
# Track frame offsets: 
#        150
#        18957
#        40575
#        55760
#        70522
#        94160
#        110732
#        131457
#        146905
#        171025
#        194717
#        211042
#        224617
#        236555
#        253320
#
# Disc length: 3656 seconds
#
# Revision: 13
# Processed by: cddbd v1.5.2PL0 Copyright (c) Steve Scherf et al.
# Submitted via: ExactAudioCopy v1.0b3
#
DISCID=de0e460f
DTITLE=荒井由実 - Super Best Of Yumi Arai Disc 2
DYEAR=2000
DGENRE=JPop
TTITLE0=卒業写真
TTITLE1=航海日誌
TTITLE2=チャイニーズ・スープ
TTITLE3=少しだけ片想い
TTITLE4=雨のステーション
TTITLE5=あの日にかえりたい
TTITLE6=さざ波
TTITLE7=14番目の月
TTITLE8=さみしさのゆくえ
TTITLE9=朝陽の中で微笑んで
TTITLE10=中央フリーウェイ
TTITLE11=天気雨
TTITLE12=避暑地の出来事
TTITLE13=グッド・ラック・アンド・グッド・バイ
TTITLE14=翳りゆく部屋
EXTD=YEAR: 2000
EXTT0=
EXTT1=
EXTT2=
EXTT3=
EXTT4=
EXTT5=
EXTT6=
EXTT7=
EXTT8=
EXTT9=
EXTT10=
EXTT11=
EXTT12=
EXTT13=
EXTT14=
PLAYORDER=
